<svg width="1671" height="1830" xmlns="http://www.w3.org/2000/svg" xmlns:xlink="http://www.w3.org/1999/xlink" xml:space="preserve" overflow="hidden"><defs><clipPath id="clip0"><rect x="1425" y="299" width="1671" height="1830"/></clipPath></defs><g clip-path="url(#clip0)" transform="translate(-1425 -299)"><path d="M2196.56 299.047C2214.88 298.922 2233.19 299.047 2251.5 299.418 2259.74 299.586 2267.91 300.329 2276 301.646 2247.14 307.489 2218.19 312.936 2189.14 317.985 2129.18 331.952 2072.51 354.233 2019.12 384.826 1876.15 466.952 1769.11 582.438 1698.03 731.284 1656.29 820.539 1629.32 914.116 1617.1 1012.02 1601.15 1119.37 1598.43 1227.06 1608.94 1335.08 1614.55 1393.83 1622.47 1452.24 1632.7 1510.35 1634.44 1520.54 1637.66 1530.2 1642.35 1539.32 1644.48 1541.09 1646.95 1542.08 1649.77 1542.29 1717.42 1527.34 1785.85 1521.77 1855.05 1525.58 1908.99 1525.47 1961.46 1534.13 2012.44 1551.57 2066.23 1571.47 2112.38 1602.53 2150.9 1644.78 2197.21 1700.58 2215.28 1764.7 2205.1 1837.13 2198.54 1894.96 2177.51 1946.7 2141.99 1992.35 2106 2036.28 2063.31 2072.06 2013.93 2099.66 1993.71 2110.95 1972.8 2120.73 1951.19 2129 1950.82 2128.87 1950.45 2128.75 1950.08 2128.63 1981.21 2099.54 2008.55 2067.48 2032.12 2032.45 2063.38 1984.92 2081.2 1932.68 2085.57 1875.75 2090.27 1818.56 2074.43 1768.06 2038.06 1724.24 2012.77 1697.54 1981.96 1680.58 1945.62 1673.37 1905.02 1665.93 1864.19 1664.45 1823.13 1668.91 1787.99 1672.13 1753.09 1677.08 1718.44 1683.77 1678.25 1692.46 1638.16 1701.62 1598.17 1711.24 1582.67 1714.69 1567.08 1717.66 1551.4 1720.16 1500.48 1721.94 1468.18 1698.3 1454.52 1649.23 1426.73 1495.04 1418.56 1339.83 1430.02 1183.57 1440.81 1051.76 1470.75 924.521 1519.85 801.838 1560.2 707.422 1614.14 622.015 1681.7 545.615 1784.04 435.972 1908.15 361.829 2054.02 323.184 2100.85 310.384 2148.36 302.338 2196.56 299.047Z" fill-rule="evenodd" fill="#FF0000"/><path d="M2437.12 320.043C2468.05 319.578 2498.72 322.919 2529.13 330.066 2664.74 360.935 2776.65 429.613 2864.87 536.098 2967.35 671.987 3015.33 825.426 3008.82 996.422 3000.59 1133.23 2959.04 1258.71 2884.17 1372.85 2874.54 1387.06 2864.77 1401.17 2854.86 1415.17 2935.24 1415.78 3015.62 1416.16 3096 1416.28 3051.93 1441.58 3009.89 1469.8 2969.86 1500.92 2918.33 1541.35 2867.87 1583.17 2818.5 1626.4 2710.1 1723.23 2604.61 1823.59 2502.04 1927.46 2463.19 1967.08 2424.61 2006.93 2386.3 2047 2386.32 2045.44 2386.82 2043.96 2387.78 2042.55 2394.96 2030.67 2402.12 2018.79 2409.3 2006.91 2497.56 1871.97 2585.73 1736.96 2673.81 1601.9 2602.58 1601.65 2531.35 1601.4 2460.12 1601.15 2563.61 1518.41 2651.29 1421.76 2723.16 1311.22 2774.9 1230.92 2811.5 1144.05 2832.97 1050.62 2857.4 944.116 2852.71 838.932 2818.87 735.076 2810.3 711.244 2799.91 688.228 2787.71 666.028 2785.61 663.429 2783.5 660.831 2781.4 658.232 2776.07 656.577 2772.85 658.557 2771.75 664.172 2783.76 705.744 2789.21 748.188 2788.08 791.503 2784.77 902.983 2761.65 1010.14 2718.7 1112.99 2689.71 1181.72 2650.13 1243.35 2599.99 1297.86 2496.36 1403.5 2370.1 1457.07 2221.21 1458.6 2158.63 1461.27 2097.29 1453.84 2037.19 1436.33 1930.13 1401.2 1854.56 1331.78 1810.52 1228.07 1772.03 1133.74 1762.39 1036.48 1781.58 936.283 1793.77 876.411 1815.29 820.229 1846.13 767.745 1862.58 743.852 1881.25 721.703 1902.15 701.295 1936.46 667.449 1974.55 638.74 2016.42 615.17 2057.21 592.982 2100.5 577.886 2146.27 569.88 2217.06 558.969 2285.33 567.632 2351.05 595.866 2426.16 629.711 2474.27 686.509 2495.37 766.26 2505.73 802.722 2509.69 839.845 2507.24 877.629 2498.46 968.654 2454.31 1036.09 2374.8 1079.95 2292.43 1124.4 2216.75 1115.24 2147.75 1052.48 2132.27 1037.7 2119.78 1020.75 2110.28 1001.62 2108.13 996.823 2106.4 991.871 2105.09 986.77 2089.56 1025.47 2073.72 1064.08 2057.6 1102.59 2053.64 1106.55 2049.68 1106.55 2045.73 1102.59 2039.98 1006.68 2034.17 910.653 2028.29 814.52 2028.53 812.79 2028.79 811.052 2029.03 809.322 2102.99 847.804 2176.93 886.293 2250.88 924.775 2255.6 926.831 2257.33 930.299 2256.08 935.169 2255.34 936.892 2254.11 938.131 2252.37 938.881 2220.19 944.13 2188.03 949.58 2155.91 955.215 2155.31 955.446 2154.82 955.817 2154.43 956.329 2176.86 996.592 2211.12 1019.36 2257.19 1024.64 2282.37 1023.25 2304.75 1014.72 2324.34 999.021 2387.77 946.677 2407.93 880.725 2384.81 801.155 2366.23 743.206 2328.01 704.726 2270.18 685.703 2217.41 668.482 2165.22 670.215 2113.62 690.9 2058.91 712.146 2013.52 745.931 1977.46 792.246 1952.36 824.899 1931.58 860.292 1915.14 898.417 1890.32 961.408 1885.87 1025.76 1901.78 1091.46 1932.43 1216.91 2011.45 1290.29 2138.85 1311.6 2193.31 1318.86 2246.74 1314.16 2299.11 1297.49 2414.47 1259.01 2502.39 1187.11 2562.89 1081.8 2604.44 1003.62 2630.16 920.468 2640.05 832.339 2650.4 746.533 2644.46 661.894 2622.25 578.418 2602.81 512.783 2571.41 453.882 2528.01 401.713 2511.9 382.361 2494.95 363.677 2477.19 345.657 2465.28 334.86 2451.92 326.322 2437.12 320.043Z" fill-rule="evenodd" fill="#FF0000"/></g></svg>