<svg width="1375" height="1375" xmlns="http://www.w3.org/2000/svg" xmlns:xlink="http://www.w3.org/1999/xlink" xml:space="preserve" overflow="hidden"><g transform="translate(-1088 -574)"><path d="M1287.38 776.813 1088 1263.22 1289.09 1747.91 1775.5 1949 2260.19 1749.62 2463 1263.22 2260.19 775.094 1775.5 574 1287.38 776.813ZM1775.52 648.44 1340.15 829.334 1162.37 1263.06 1341.68 1695.25 1775.57 1874.63 2207.69 1696.88 2388.53 1263.17 2207.6 827.708 1775.52 648.44Z" fill="#D9D9D9" fill-rule="evenodd"/><path d="M2136.03 1732.41 2274.59 1870.97C2279.96 1876.34 2288.66 1876.34 2294.03 1870.97L2383.97 1781.03C2389.34 1775.66 2389.34 1766.96 2383.97 1761.59L2245.41 1623.03C2240.04 1617.66 2231.34 1617.66 2225.97 1623.03L2136.03 1712.97C2130.66 1718.34 2130.66 1727.04 2136.03 1732.41Z" fill="#D9D9D9" fill-rule="evenodd"/><path d="M1336.51 825.458 1157 1263.05 1338.06 1699.09 1776 1880 2212.4 1700.64 2395 1263.05 2212.4 823.911 1776 643 1336.51 825.458ZM1776.02 717.41 1389.3 877.958 1231.4 1262.89 1390.67 1646.46 1776.07 1805.66 2159.88 1647.91 2320.5 1263 2159.79 876.505 1776.02 717.41Z" fill="#A6A6A6" fill-rule="evenodd"/><path d="M1385.5 873.25 1226 1262.37 1386.88 1650.12 1776 1811 2163.75 1651.5 2326 1262.37 2163.75 871.875 1776 711 1385.5 873.25ZM1776.02 785.44 1438.27 925.771 1300.37 1262.22 1439.46 1597.47 1776.07 1736.63 2111.26 1598.76 2251.53 1262.33 2111.16 924.489 1776.02 785.44Z" fill="#595959" fill-rule="evenodd"/><path d="M1434.49 922.043 1295 1262.7 1435.69 1602.16 1776 1743 2115.11 1603.37 2257 1262.7 2115.11 920.839 1776 780 1434.49 922.043ZM1776.02 854.479 1487.24 974.591 1369.33 1262.55 1488.25 1549.48 1776.07 1668.59 2062.64 1550.59 2182.57 1262.66 2062.55 973.48 1776.02 854.479Z" fill="#262626" fill-rule="evenodd"/></g></svg>